<svg width="19797" height="14631" viewBox="0 0 19797 14631" fill="none" xmlns="http://www.w3.org/2000/svg">
<g clip-path="url(#clip0)">
<path d="M17628.9 5471.8C17200 5471.8 16780.9 5311.34 16424.3 5010.72C16067.8 4710.09 15789.9 4282.8 15625.8 3782.88C15461.7 3282.96 15418.7 2732.86 15502.4 2202.15C15586 1671.44 15792.5 1183.95 16095.8 801.326C16399 418.704 16785.3 158.135 17205.9 52.5698C17626.5 -52.9955 18062.4 1.18444 18458.6 208.258C18854.7 415.332 19193.4 765.999 19431.6 1215.91C19669.8 1665.83 19797 2194.79 19797 2735.9C19796.3 3461.25 19567.7 4156.66 19161.2 4669.56C18754.8 5182.47 18203.7 5470.98 17628.9 5471.8V5471.8ZM17628.9 42.7486C17206.7 42.7486 16794.1 200.699 16443.1 496.626C16092.1 792.553 15818.6 1213.17 15657.1 1705.27C15495.5 2197.38 15453.3 2738.89 15535.6 3261.31C15618 3783.73 15821.2 4263.6 16119.7 4640.24C16418.2 5016.89 16798.5 5273.39 17212.5 5377.3C17626.5 5481.22 18055.6 5427.88 18445.6 5224.05C18835.6 5020.21 19168.9 4675.02 19403.4 4232.13C19638 3789.25 19763.1 3268.55 19763.1 2735.9C19762.5 2021.88 19537.4 1337.33 19137.3 832.446C18737.2 327.558 18194.7 43.5564 17628.9 42.7486V42.7486Z" fill="#3F3D56"/>
<path d="M17636.1 4117.53C18237.4 4117.53 18724.8 3502.47 18724.8 2743.75C18724.8 1985.03 18237.4 1369.97 17636.1 1369.97C17034.9 1369.97 16547.4 1985.03 16547.4 2743.75C16547.4 3502.47 17034.9 4117.53 17636.1 4117.53Z" fill="#F2F2F2"/>
<path d="M17708 2746.94H1088.2V13282.8H17708V2746.94Z" fill="#3F3D56"/>
<path opacity="0.1" d="M11990 5792.85H5757.56V11185.6H11990V5792.85Z" fill="black"/>
<path d="M19126.2 1366.77C19368.7 1366.77 19565.2 1118.76 19565.2 812.827C19565.2 506.891 19368.7 258.882 19126.2 258.882C18883.8 258.882 18687.2 506.891 18687.2 812.827C18687.2 1118.76 18883.8 1366.77 19126.2 1366.77Z" fill="#6C63FF"/>
<path d="M1582.83 3396.07C1692.11 3396.07 1780.69 3284.29 1780.69 3146.4C1780.69 3008.52 1692.11 2896.74 1582.83 2896.74C1473.56 2896.74 1384.98 3008.52 1384.98 3146.4C1384.98 3284.29 1473.56 3396.07 1582.83 3396.07Z" fill="#6C63FF"/>
<path d="M2196.18 3396.07C2305.46 3396.07 2394.04 3284.29 2394.04 3146.4C2394.04 3008.52 2305.46 2896.74 2196.18 2896.74C2086.91 2896.74 1998.33 3008.52 1998.33 3146.4C1998.33 3284.29 2086.91 3396.07 2196.18 3396.07Z" fill="#6C63FF"/>
<path d="M2809.53 3396.07C2918.8 3396.07 3007.39 3284.29 3007.39 3146.4C3007.39 3008.52 2918.8 2896.74 2809.53 2896.74C2700.26 2896.74 2611.68 3008.52 2611.68 3146.4C2611.68 3284.29 2700.26 3396.07 2809.53 3396.07Z" fill="#6C63FF"/>
<path d="M3403.1 6666.68H3007.39V7166.01H3403.1V6666.68Z" fill="#6C63FF"/>
<path d="M15452.4 11010.9H15056.7V11510.2H15452.4V11010.9Z" fill="white"/>
<path d="M14057.2 7538.91L13749.6 7852.99L13998.5 8241.17L14306.1 7927.09L14057.2 7538.91Z" fill="#6C63FF"/>
<path d="M12662.7 14331.4H237.429V5892.72H276.997V14281.5H12662.7V14331.4Z" fill="#3F3D56"/>
<path d="M12900.1 14631C12849.2 14631 12799.5 14612 12757.2 14576.3C12714.9 14540.6 12681.9 14489.9 12662.5 14430.6C12643 14371.3 12637.9 14306.1 12647.8 14243.1C12657.8 14180.2 12682.3 14122.3 12718.2 14076.9C12754.2 14031.5 12800 14000.6 12849.9 13988.1C12899.8 13975.6 12951.5 13982 12998.5 14006.6C13045.5 14031.1 13085.7 14072.7 13114 14126.1C13142.2 14179.5 13157.3 14242.2 13157.3 14306.4C13157.2 14392.5 13130.1 14475 13081.9 14535.8C13033.7 14596.7 12968.3 14630.9 12900.1 14631V14631ZM12900.1 14031.8C12857.1 14031.8 12815 14047.9 12779.2 14078.1C12743.4 14108.3 12715.5 14151.2 12699 14201.3C12682.6 14251.5 12678.2 14306.7 12686.6 14360C12695 14413.3 12715.8 14462.2 12746.2 14500.6C12776.6 14539 12815.4 14565.2 12857.6 14575.8C12899.9 14586.4 12943.6 14580.9 12983.4 14560.2C13023.2 14539.4 13057.2 14504.2 13081.1 14459C13105 14413.8 13117.7 14360.8 13117.7 14306.4C13117.7 14233.6 13094.7 14163.8 13053.9 14112.3C13013.1 14060.8 12957.8 14031.9 12900.1 14031.8V14031.8Z" fill="#3F3D56"/>
<path d="M257.211 5917.69C206.339 5917.69 156.61 5898.65 114.312 5862.99C72.0141 5827.32 39.0468 5776.63 19.5791 5717.33C0.111448 5658.02 -4.98219 5592.76 4.94235 5529.8C14.8669 5466.84 39.3638 5409.01 75.3354 5363.62C111.307 5318.23 157.137 5287.32 207.031 5274.79C256.925 5262.27 308.642 5268.7 355.641 5293.26C402.64 5317.83 442.811 5359.43 471.074 5412.8C499.336 5466.18 514.422 5528.93 514.422 5593.12C514.346 5679.17 487.223 5761.67 439.003 5822.52C390.783 5883.37 325.404 5917.59 257.211 5917.69V5917.69ZM257.211 5318.49C214.166 5318.49 172.087 5334.6 136.297 5364.77C100.506 5394.95 72.6105 5437.84 56.1379 5488.02C39.6653 5538.21 35.3553 5593.43 43.753 5646.7C52.1506 5699.97 72.8788 5748.91 103.316 5787.32C133.754 5825.72 172.533 5851.88 214.751 5862.48C256.969 5873.07 300.73 5867.63 340.498 5846.85C380.266 5826.06 414.257 5790.86 438.172 5745.7C462.086 5700.54 474.851 5647.44 474.851 5593.12C474.785 5520.31 451.835 5450.5 411.033 5399.02C370.232 5347.53 314.912 5318.57 257.211 5318.49V5318.49Z" fill="#3F3D56"/>
<path d="M3976.87 12658.6L3800.19 13282.8H3403.09V12646.2C3432.38 11847.5 3787.53 11472 3798.61 11460.5C3531.7 11785.3 3561.38 12908.3 3561.38 12908.3C3739.45 11934.6 3897.73 11909.7 3897.73 11909.7C3801.97 12091.2 3752.5 12916.8 3749.54 12968.2C3761.41 12794.7 3976.87 12658.6 3976.87 12658.6Z" fill="#F2F2F2"/>
<path d="M16263.6 12743.5V13282.8H15958.3L15808.6 12753.3C15808.6 12753.3 15979.3 12861.1 15988.8 12998.7C15986.4 12956.2 15947.3 12303.1 15871.3 12159.3C15871.3 12159.3 15996.9 12179 16138.2 12951.3C16138.2 12951.3 16161.5 12060.7 15950 11803C15958.9 11812.3 16240.5 12109.9 16263.6 12743.5Z" fill="#F2F2F2"/>
<path d="M10920.6 11185.5H10439.3L10436.1 11135.7L10401.1 10580.6V10580.4L10364.7 10003.3L10586.7 8812.98L10775.4 9051.09V10185.4C10775.4 10185.4 10886.4 10395.5 10864.2 10451.5C10842 10507.5 10819.8 10507.5 10842 10549.4C10864.2 10591.5 10886.4 10619.5 10864.2 10647.5C10853.4 10665.7 10847.5 10687.8 10847.5 10710.6C10847.5 10733.3 10853.4 10755.4 10864.2 10773.6C10886.4 10801.6 10930.7 10843.5 10897.4 10885.6C10864.2 10927.5 10819.8 10899.5 10864.2 11053.6C10872.3 11082.1 10882.5 11109.6 10894.7 11135.7C10902.6 11152.9 10911.2 11169.5 10920.6 11185.5V11185.5Z" fill="#D0CDE1"/>
<path d="M9438.01 7349.46L9371.42 8189.72L10048.4 8315.76L10098.3 7832.62L10148.3 7349.46H9438.01Z" fill="#FFB9B9"/>
<path opacity="0.1" d="M9438.01 7349.46L9371.42 8189.72L10048.4 8315.76L10098.3 7832.62L10148.3 7349.46H9438.01Z" fill="black"/>
<path d="M9809.79 7622.55C10104 7622.55 10342.5 7321.59 10342.5 6950.34C10342.5 6579.08 10104 6278.12 9809.79 6278.12C9515.58 6278.12 9277.08 6579.08 9277.08 6950.34C9277.08 7321.59 9515.58 7622.55 9809.79 7622.55Z" fill="#FFB9B9"/>
<path d="M8463.63 11185.5C8461.77 11180.6 8459.73 11175.5 8457.7 11169.9C8453.81 11159.4 8449.57 11148.1 8445 11135.7C8415.53 11052.8 8379.45 10934.8 8400.28 10899.5C8433.65 10843.5 8444.66 10787.5 8422.47 10759.5C8400.28 10731.5 8333.71 10787.5 8400.28 10717.4C8466.85 10647.5 8489.04 10689.4 8466.85 10605.4C8444.66 10521.4 8400.28 10563.5 8444.66 10521.4C8489.04 10479.5 8522.41 10493.4 8500.22 10451.5C8478.03 10409.4 8433.65 10409.4 8478.03 10381.4C8522.41 10353.4 8555.78 10381.4 8544.6 10311.3C8533.42 10241.4 8522.41 10269.4 8544.6 10241.4C8550.36 10234.1 8570.51 10163.6 8597.45 10062.9C8672.82 9778.45 8799.86 9253.71 8799.86 9232.98C8799.86 9204.98 8622.35 8322.87 8622.35 8322.87L8544.6 8266.65C8544.6 8266.65 8200.57 8560.76 8089.63 9219.09C7978.51 9877.2 7900.93 10045.4 7900.93 10045.4C7900.93 10045.4 7789.98 10073.4 7867.56 10171.3C7945.31 10269.4 7945.31 10255.3 7878.74 10311.3C7812.17 10367.3 7767.79 10255.3 7812.17 10367.3C7856.55 10479.5 7911.94 10451.5 7867.56 10521.4C7823.18 10591.5 7745.6 10591.5 7789.98 10647.5C7834.36 10703.5 7745.6 10829.6 7800.99 10885.6C7856.55 10941.6 7878.74 10955.5 7878.74 11053.6C7878.76 11081.1 7880.52 11108.6 7883.99 11135.7C7885.9 11152.5 7888.61 11169.1 7892.12 11185.5C7894.66 11198.6 7897.2 11208.4 7898.9 11214.6L8463.63 11185.5Z" fill="#D0CDE1"/>
<path d="M8463.63 11185.5H8508.86L8511.23 11165.6L8457.7 11169.9L8263.08 11185.5L7898.9 11214.6L8463.63 11185.5Z" fill="#3F3D56"/>
<path d="M8699.92 10591.5L8600.15 10157.4L8597.45 10062.9L8544.6 8266.65L9199.44 7972.76L9310.39 7860.54C9310.39 7860.54 9332.58 7538.43 9365.95 7510.43C9377.98 7500.39 9397.29 7512.14 9422.86 7539.5C9467.75 7587.59 9532.12 7683.56 9610.03 7790.65C9732.16 7958.65 9987.43 7930.65 10065 7874.65C10075 7867.31 10085.3 7860.81 10096 7855.2C10151.7 7826.13 10176 7846.65 10176 7846.65C10231.5 7902.65 10098.4 8084.76 10098.4 8084.76C10098.4 8084.76 10142.8 8210.65 10431.2 8336.76C10719.9 8462.87 10775.4 9051.09 10775.4 9051.09C10775.4 9051.09 10431.2 10227.3 10442.4 10311.3C10451.9 10383.3 10412.6 10537.7 10401.1 10580.4V10580.6C10399.2 10587.5 10398 10591.5 10398 10591.5L10423.3 11135.7L10425.6 11185.5H8746.84C8741.85 11168.2 8735.56 11151.5 8728.04 11135.7C8726.18 11131.9 8724.15 11127.8 8722.11 11123.7C8622.34 10927.5 8699.92 10591.5 8699.92 10591.5Z" fill="#D0CDE1"/>
<path d="M9273.39 7036.45C9273.39 7036.45 9218.07 6931.74 9239.34 6818.98C9252.06 6754.95 9257.08 6688.89 9254.24 6622.98C9254.24 6622.98 9298.92 6440.41 9343.6 6338.39C9388.28 6236.37 9367 6193.41 9507.43 6161.19C9647.86 6128.97 9590.41 5898.08 9960.62 6147.77C9973.12 6169.77 9990.49 6186.62 10010.6 6196.17C10030.6 6205.73 10052.5 6207.57 10073.4 6201.46C10150 6182.67 10177.6 6316.91 10177.6 6316.91C10177.6 6316.91 10228.7 6279.32 10247.9 6333.02C10267 6386.72 10403.5 6300.79 10403.5 6663.25C10403.5 7025.7 10248.2 7349.46 10248.2 7349.46C10248.2 7349.46 10259.6 6739.77 10006.4 6678.02C9753.18 6616.27 9480.83 6436.39 9414.88 6667.28C9379.27 6796.87 9331.79 6920.77 9273.39 7036.45Z" fill="#2F2E41"/>
<path d="M10253.7 7181.41C10281.3 7181.41 10303.7 7143.79 10303.7 7097.38C10303.7 7050.98 10281.3 7013.36 10253.7 7013.36C10226.1 7013.36 10203.8 7050.98 10203.8 7097.38C10203.8 7143.79 10226.1 7181.41 10253.7 7181.41Z" fill="#FFB9B9"/>
<path d="M5757.52 5393.32V11185.5H13038.6V5393.32H5757.52ZM12999.1 11135.7H5797.15V5443.33H12999.1V11135.7Z" fill="white"/>
<path opacity="0.1" d="M6157.9 3574.51L6157.88 3574.5L5790.33 3331.53L5787.84 3332.64L5640.98 3236.65L5634.81 3235.75L5640.38 3232.33L4075.11 2197.69L2563.45 1198.45L2029.06 1640.43L1981.24 1660L3019.31 2733.81L6948.02 6797.96L10272.6 6294.4L6157.9 3574.51Z" fill="#F2F2F2"/>
<path d="M2337.27 1795.12C2539.69 1764.46 2660.76 1566.18 2607.71 1352.25C2554.65 1138.31 2347.55 989.737 2145.14 1020.4C1942.73 1051.05 1821.65 1249.34 1874.7 1463.27C1927.76 1677.2 2134.86 1825.78 2337.27 1795.12Z" fill="#F2F2F2"/>
</g>
<defs>
<clipPath id="clip0">
<rect width="19797" height="14631" fill="white"/>
</clipPath>
</defs>
</svg>
